HIERARCHY
ROOT root
{
	OFFSET 0.000000 0.000000 0.000000
	CHANNELS 6 Xposition Yposition Zposition Zrotation Yrotation Xrotation
	JOINT lhip
	{
		OFFSET 0.058581 -0.082280 -0.017664
		CHANNELS 3 Zrotation Yrotation Xrotation
		JOINT lknee
		{
			OFFSET 0.043451 -0.386469 0.008037
			CHANNELS 3 Zrotation Yrotation Xrotation
			JOINT lankle
			{
				OFFSET -0.014790 -0.426874 -0.037428
				CHANNELS 3 Zrotation Yrotation Xrotation
				JOINT ltoe
				{
					OFFSET 0.041054 -0.060286 0.122042
					CHANNELS 3 Zrotation Yrotation Xrotation
					End Site
					{
						OFFSET 0.000000 0.000000 0.000000
					}
				}
			}
		}
	}
	JOINT rhip
	{
		OFFSET -0.060310 -0.090513 -0.013543
		CHANNELS 3 Zrotation Yrotation Xrotation
		JOINT rknee
		{
			OFFSET -0.043257 -0.383688 -0.004843
			CHANNELS 3 Zrotation Yrotation Xrotation
			JOINT rankle
			{
				OFFSET 0.019056 -0.420046 -0.034562
				CHANNELS 3 Zrotation Yrotation Xrotation
				JOINT rtoe
				{
					OFFSET -0.034840 -0.062106 0.130323
					CHANNELS 3 Zrotation Yrotation Xrotation
					End Site
					{
						OFFSET 0.000000 0.000000 0.000000
					}
				}
			}
		}
	}
	JOINT lowerback
	{
		OFFSET 0.004439 0.124404 -0.038385
		CHANNELS 3 Zrotation Yrotation Xrotation
		JOINT upperback
		{
			OFFSET 0.004488 0.137956 0.026820
			CHANNELS 3 Zrotation Yrotation Xrotation
			JOINT chest
			{
				OFFSET -0.002265 0.056032 0.002855
				CHANNELS 3 Zrotation Yrotation Xrotation
				JOINT lowerneck
				{
					OFFSET -0.013390 0.211636 -0.033468
					CHANNELS 3 Zrotation Yrotation Xrotation
					JOINT upperneck
					{
						OFFSET 0.010113 0.088937 0.050410
						CHANNELS 3 Zrotation Yrotation Xrotation
						End Site
						{
							OFFSET 0.000000 0.000000 0.000000
						}
					}
				}
				JOINT lclavicle
				{
					OFFSET 0.071702 0.114000 -0.018898
					CHANNELS 3 Zrotation Yrotation Xrotation
					JOINT lshoulder
					{
						OFFSET 0.122921 0.045205 -0.019046
						CHANNELS 3 Zrotation Yrotation Xrotation
						JOINT lelbow
						{
							OFFSET 0.255332 -0.015649 -0.022946
							CHANNELS 3 Zrotation Yrotation Xrotation
							JOINT lwrist
							{
								OFFSET 0.265709 0.012698 -0.007375
								CHANNELS 3 Zrotation Yrotation Xrotation
								End Site
								{
									OFFSET 0.000000 0.000000 0.000000
								}
							}
						}
					}
				}
				JOINT rclavicle
				{
					OFFSET -0.082954 0.112472 -0.023707
					CHANNELS 3 Zrotation Yrotation Xrotation
					JOINT rshoulder
					{
						OFFSET -0.113228 0.046853 -0.008472
						CHANNELS 3 Zrotation Yrotation Xrotation
						JOINT relbow
						{
							OFFSET -0.260127 -0.014369 -0.031269
							CHANNELS 3 Zrotation Yrotation Xrotation
							JOINT rwrist
							{
								OFFSET -0.269108 0.006794 -0.006027
								CHANNELS 3 Zrotation Yrotation Xrotation
								End Site
								{
									OFFSET 0.000000 0.000000 0.000000
								}
							}
						}
					}
				}
			}
		}
	}
}
MOTION
Frames: 12
Frame Time: 0.033333
2.027224 0.132997 0.992720 -87.489749 2.267642 87.368329 1.996646 0.689427 8.109777 -1.833728 -13.664685 2.247145 5.276702 9.373938 -17.124623 0.000000 -0.000000 0.000000 3.640524 -2.061362 6.491773 4.185951 1.058123 3.342545 2.433080 -4.528494 -10.869776 0.000000 -0.000000 0.000000 -1.113923 0.388187 4.059297 2.079339 -3.568485 2.665298 1.057260 -2.143517 5.116764 4.635532 -2.429684 7.582680 5.892436 -4.635515 1.089151 -24.918341 6.321485 2.473617 -62.553893 -6.226010 7.385125 10.228195 -26.836837 4.688727 -4.251201 0.575715 -8.255188 22.254284 -4.336099 -1.115547 63.700068 0.867406 9.339053 -16.050732 26.148517 -4.639922 7.920829 -1.065656 -10.185146 
2.027645 0.133030 0.993021 -87.533793 2.289492 87.605125 1.948210 0.410005 7.797085 -1.819256 -13.517961 2.314015 4.961127 9.510894 -17.149018 0.000000 -0.000000 0.000000 3.722862 -1.742262 6.275058 4.189654 1.441110 3.227292 2.645977 -5.178555 -10.922119 0.000000 -0.000000 0.000000 -0.996212 0.293883 3.968908 2.177957 -3.326058 2.187244 0.954222 -2.414050 5.292742 4.924260 -2.856500 5.366393 3.352491 -5.724692 6.376964 -25.448140 6.575226 2.618903 -62.054541 -6.636419 7.761178 10.367937 -26.524156 4.378118 -3.811797 -0.081570 -8.273621 22.715683 -4.651623 -1.040937 63.112722 0.962916 9.999893 -16.161938 25.758249 -5.358025 7.407967 -0.649195 -10.175846 
2.027554 0.133028 0.993065 -87.638667 2.311534 87.704287 1.946732 0.420998 7.714552 -1.784812 -13.445336 2.288127 4.971209 9.558866 -17.115479 0.000000 -0.000000 0.000000 3.749771 -1.827699 6.188630 4.141251 1.674363 3.155780 2.553895 -5.243514 -10.838661 0.000000 -0.000000 0.000000 -0.972488 0.277187 3.966917 2.202847 -3.364726 2.004473 0.953931 -2.449783 5.368001 5.121706 -2.919672 5.118037 3.330400 -5.857427 6.686226 -25.553784 6.650430 2.556453 -61.984818 -6.678145 7.809830 10.319562 -26.220356 4.347055 -3.565430 -0.004632 -8.071180 22.885011 -4.765416 -1.221793 62.886818 0.935588 10.040387 -16.075710 25.291889 -5.403435 7.309837 -0.555973 -9.978063 
2.027177 0.133329 0.992961 -87.793127 2.397610 87.625995 2.092911 0.607828 7.865093 -1.817938 -13.403260 2.232069 4.777803 9.516154 -17.184748 0.000000 -0.000000 0.000000 3.795574 -1.659089 6.375031 4.234325 1.541654 3.127763 2.623978 -5.202687 -10.984411 0.000000 -0.000000 0.000000 -0.943673 0.244726 4.139648 2.291491 -3.357536 1.960053 1.011840 -2.528365 5.332270 5.302318 -2.778199 5.153435 3.179714 -5.825645 7.054829 -25.816454 6.676847 2.600881 -61.802911 -6.619203 7.646913 10.402909 -25.868876 4.058357 -3.542808 -0.371981 -7.918420 23.182870 -4.891933 -1.176324 62.451296 0.922696 10.008484 -16.312384 25.303267 -5.328615 6.766345 -0.189282 -9.256025 
2.027086 0.133723 0.992778 -87.895763 2.416711 87.667886 2.185490 0.610950 7.812206 -1.926033 -13.304164 2.265934 4.855364 9.564966 -17.236319 0.000000 -0.000000 0.000000 3.872779 -1.673085 6.399988 4.132678 1.685902 3.019439 2.591814 -5.106533 -10.975273 0.000000 -0.000000 0.000000 -0.992766 0.296951 4.124184 2.334482 -3.377623 1.965695 1.021889 -2.547953 5.311018 5.427022 -2.837597 5.161810 3.223874 -5.810990 7.086197 -25.745417 6.743991 2.616222 -61.816848 -6.578559 7.638304 10.319541 -25.695983 4.192456 -3.863744 -0.411363 -8.082680 22.910700 -4.969899 -1.199922 62.785071 0.748058 10.011254 -16.151224 24.863253 -5.276481 7.232619 -0.523065 -9.846437 
2.026446 0.134251 0.992807 -88.043738 2.434862 87.658583 2.262213 0.603764 7.947125 -1.965347 -13.295321 2.153646 4.781768 9.654552 -17.207351 0.000000 -0.000000 0.000000 3.884505 -1.854992 6.505517 4.133601 1.625243 2.912323 2.687266 -4.983748 -10.823654 0.000000 -0.000000 0.000000 -1.072923 0.307390 4.064229 2.351930 -3.428046 1.989654 1.059944 -2.539025 5.449500 5.701035 -3.007661 4.766948 3.271682 -6.060125 7.323630 -25.824352 6.744269 2.594474 -61.705912 -6.425681 7.628165 10.325757 -25.357892 4.140329 -3.590017 -0.251587 -7.992525 22.952604 -5.036142 -1.261470 62.777219 0.590489 10.119248 -16.005992 24.636962 -5.089315 7.331102 -0.501195 -9.938888 
2.026204 0.134477 0.992848 -88.148988 2.471421 87.662220 2.264149 0.529948 7.907358 -1.942468 -13.261457 2.303801 4.768955 9.762972 -17.248204 0.000000 -0.000000 0.000000 3.915610 -1.911095 6.544886 4.151482 1.770793 2.822456 2.830824 -4.976096 -10.773275 0.000000 -0.000000 0.000000 -1.067621 0.358017 4.120555 2.384985 -3.460858 1.926004 1.067571 -2.606616 5.430132 5.865520 -2.925507 4.724761 3.202290 -5.993484 7.648146 -25.955892 6.797940 2.587206 -61.649727 -6.334645 7.572860 10.335382 -24.778114 4.101566 -3.537787 -0.222026 -7.868762 23.021228 -5.238337 -1.346071 62.645517 0.512132 10.137850 -15.761084 24.416725 -5.009500 7.539227 -0.463063 -9.895183 
2.025981 0.134876 0.992908 -88.227342 2.503451 87.689145 2.359158 0.698034 7.672145 -2.079125 -13.222136 2.765596 4.650402 9.700166 -17.435115 0.000000 -0.000000 0.000000 3.887495 -1.926825 6.563218 4.270932 1.859023 2.796790 2.836795 -4.936309 -10.619465 0.000000 -0.000000 0.000000 -1.037345 0.286742 4.117366 2.405817 -3.508625 1.899982 1.039004 -2.560763 5.444711 6.078898 -2.980911 4.595094 3.121592 -6.164792 7.990287 -26.142678 6.871693 2.504639 -61.449909 -6.216475 7.496722 10.235572 -24.250735 4.013058 -3.619609 -0.371317 -7.733446 23.203875 -5.375744 -1.442302 62.443803 0.492564 10.123848 -15.593566 24.093585 -4.966029 7.487092 -0.680827 -9.670636 
2.025628 0.135375 0.992829 -88.395597 2.517340 87.609945 2.381145 0.759136 7.874389 -2.007207 -13.196494 2.606443 4.627986 9.794974 -17.354561 0.000000 -0.000000 0.000000 3.950240 -1.877339 6.650900 4.261948 1.996045 2.847943 2.760317 -4.984887 -10.634842 0.000000 -0.000000 0.000000 -1.029980 0.239940 4.144085 2.381779 -3.517458 1.970149 1.021504 -2.476496 5.401431 6.164777 -2.889264 4.664032 3.069555 -6.058649 8.221116 -26.142103 6.867551 2.688179 -61.433088 -6.137256 7.379203 10.318112 -23.844147 3.900376 -3.736602 -0.247045 -7.760961 23.225977 -5.391460 -1.325080 62.500948 0.428030 10.117557 -15.564650 23.985908 -4.810520 7.566713 -0.950654 -9.546486 
2.025318 0.135670 0.992735 -88.537826 2.495052 87.564762 2.336550 0.764415 8.013072 -1.935438 -13.237063 2.488111 4.679669 9.945450 -17.339767 0.000000 -0.000000 0.000000 3.941761 -1.867984 6.696947 4.231649 2.041311 2.845642 2.792861 -4.951538 -10.622258 0.000000 -0.000000 0.000000 -1.043546 0.218428 4.242773 2.359504 -3.508333 1.952695 1.036793 -2.410986 5.239147 6.163908 -2.893567 4.935417 2.979206 -5.864177 8.552098 -26.181220 6.931008 2.882668 -61.413393 -5.982760 7.153511 10.359302 -23.431777 3.560480 -4.192497 -0.499601 -8.417472 23.049417 -5.488876 -1.048219 62.749059 0.339426 10.044675 -15.664605 23.873720 -4.728365 7.838951 -0.923331 -9.887598 
2.025319 0.136084 0.992712 -88.546983 2.506986 87.515043 2.373629 0.829382 8.041086 -1.932456 -13.300605 2.532837 4.650229 9.958144 -17.331720 0.000000 -0.000000 0.000000 3.981836 -1.865682 6.770483 4.217749 2.027363 2.838588 2.756311 -4.928774 -10.546378 0.000000 -0.000000 0.000000 -1.071919 0.190536 4.336403 2.383132 -3.542857 1.959611 1.077866 -2.294741 5.142887 6.252192 -2.925338 5.033803 2.913296 -5.891541 8.815790 -26.241192 7.053380 2.851994 -61.431986 -5.962824 7.013886 10.321764 -23.101627 3.469419 -4.367903 -0.357514 -8.382491 23.111469 -5.551669 -1.017768 62.653009 0.343570 9.975041 -15.613385 23.627908 -4.807922 7.929518 -0.869407 -9.823382 
2.025198 0.136362 0.992608 -88.437665 2.496032 87.474303 2.393522 0.845987 8.068678 -1.892793 -13.307960 2.539178 4.655163 9.891641 -17.311769 0.000000 -0.000000 0.000000 3.991881 -1.979692 6.858883 4.185021 2.033437 2.755623 2.733471 -4.930298 -10.534489 0.000000 -0.000000 0.000000 -1.042498 0.141612 4.354003 2.362545 -3.660437 2.072719 1.060418 -2.247675 5.052787 6.369751 -2.905433 5.025024 2.909773 -5.838045 8.846842 -26.274217 7.080894 2.895273 -61.452088 -5.807719 6.998202 10.310903 -22.917198 3.642734 -4.314034 -0.279322 -8.136000 23.124266 -5.524168 -0.847789 62.669094 0.420214 9.834984 -15.549897 23.318209 -4.854787 7.811767 -0.780273 -9.677512 
